<?xml version="1.0" encoding="utf-8"?>
<!-- Generator: Adobe Illustrator 27.9.0, SVG Export Plug-In . SVG Version: 6.00 Build 0)  -->
<svg version="1.1" id="Layer_1" xmlns="http://www.w3.org/2000/svg" xmlns:xlink="http://www.w3.org/1999/xlink" x="0px" y="0px"
	 viewBox="0 0 4000 1000" style="enable-background:new 0 0 4000 1000;" xml:space="preserve">
<style type="text/css">
	.st0{fill:none;stroke:#000000;stroke-width:16.4044;stroke-linecap:round;stroke-linejoin:round;stroke-miterlimit:10;}
	.st1{fill:none;stroke:#000000;stroke-width:26.33;stroke-linecap:round;stroke-linejoin:round;stroke-miterlimit:10;}
	.st2{fill:none;stroke:#FFFFFF;stroke-width:16.4044;stroke-linecap:round;stroke-linejoin:round;stroke-miterlimit:10;}
	.st3{fill:#FFFFFF;}
</style>
<g>
	<g>
		<path class="st0" d="M667.22,456.65l-86.34,118.71l58.36,42.44l27.98-38.47v104.42c0,18.61-15.08,33.69-33.69,33.69H377.8
			c-18.61,0-33.69-15.08-33.69-33.69V316.24c0-18.61,15.08-33.69,33.69-33.69h222.81l66.61,66.61V456.65z"/>
		<polyline class="st0" points="600.61,282.55 600.61,349.12 667.22,349.17 		"/>
		<g>
			<polygon class="st0" points="764.21,445.98 667.22,579.33 639.24,617.81 580.88,575.36 667.22,456.65 705.85,403.53 			"/>
			<path class="st0" d="M781.96,409.87c0,7.36-2.25,14.79-6.91,21.19l-10.85,14.91l-58.36-42.44l10.85-14.91
				c11.72-16.11,34.28-19.68,50.4-7.96C776.81,387.72,781.96,398.72,781.96,409.87z"/>
			<polyline class="st0" points="580.88,575.36 568.56,653.64 639.24,617.81 			"/>
		</g>
		<line class="st0" x1="383.54" y1="343.04" x2="545.48" y2="343.04"/>
		<line class="st0" x1="383.54" y1="408.5" x2="633.91" y2="408.5"/>
		<line class="st0" x1="383.54" y1="473.39" x2="633.91" y2="473.39"/>
		<line class="st0" x1="383.54" y1="538.28" x2="545.48" y2="538.28"/>
		<line class="st0" x1="383.54" y1="603.17" x2="545.48" y2="603.17"/>
		<line class="st0" x1="383.54" y1="668.06" x2="633.91" y2="668.06"/>
	</g>
	<circle class="st1" cx="563.04" cy="500" r="358.06"/>
</g>
<g>
	<g>
		<polygon points="2563.36,340.95 2524.76,340.92 2524.76,302.36 		"/>
		<path d="M2689.71,409.87c0,5.91-1.84,11.57-5.34,16.37l-6.02,8.28l-45.09-32.79l6.02-8.28c9.05-12.43,26.51-15.19,38.95-6.15
			C2685.42,392.53,2689.71,400.97,2689.71,409.87z"/>
		<path d="M2668.7,447.79l-115.32,158.56l-45.09-32.8l81.51-112.07c0.01,0,0.01,0,0.01,0l33.8-46.49l5.23,3.81L2668.7,447.79z"/>
		<polygon points="2539.52,616.55 2495.11,639.08 2502.85,589.88 		"/>
		<path d="M2488.73,574.09c0.01-0.09,0.04-0.17,0.05-0.25c0.03-0.15,0.06-0.31,0.1-0.46c0.03-0.13,0.07-0.25,0.1-0.37
			c0.04-0.13,0.08-0.27,0.13-0.4c0.05-0.14,0.11-0.28,0.17-0.43c0.04-0.09,0.08-0.19,0.13-0.29c0.08-0.17,0.16-0.34,0.25-0.5
			c0.04-0.07,0.08-0.14,0.12-0.2c0.11-0.19,0.23-0.37,0.35-0.54c0.03-0.04,0.05-0.08,0.07-0.11l0.08-0.11
			c0.02-0.02,0.03-0.04,0.05-0.06l84.64-116.39v-96.62l-58.42-0.04c-4.52,0-8.19-3.67-8.19-8.2v-58.36h-214.61
			c-14.05,0-25.48,11.43-25.48,25.48v367.52c0,14.05,11.43,25.48,25.48,25.48h255.73c14.06,0,25.49-11.43,25.49-25.48v-79.2
			l-13.15,18.07c-0.04,0.06-0.09,0.12-0.14,0.18c-0.1,0.13-0.21,0.27-0.32,0.39c-0.04,0.05-0.09,0.1-0.13,0.15
			c-0.05,0.06-0.11,0.11-0.16,0.17c-0.09,0.08-0.17,0.17-0.26,0.25c-0.08,0.08-0.16,0.15-0.24,0.22c-0.07,0.06-0.13,0.11-0.19,0.17
			c-0.06,0.04-0.11,0.08-0.17,0.13c-0.12,0.09-0.25,0.18-0.37,0.27c-0.07,0.04-0.13,0.09-0.2,0.14c-0.03,0.01-0.05,0.03-0.08,0.04
			c-0.17,0.11-0.35,0.21-0.52,0.3c-0.05,0.03-0.09,0.06-0.14,0.08h-0.01c-0.02,0.02-0.05,0.03-0.07,0.04l-0.08,0.04
			c-0.01,0.01-0.01,0.01-0.02,0.01l-68.33,34.65h59.48c4.53,0,8.2,3.67,8.2,8.2c0,4.53-3.67,8.2-8.2,8.2H2299.5
			c-4.53,0-8.21-3.67-8.21-8.2c0-4.53,3.68-8.2,8.21-8.2h179.69c-2.15-1.84-3.23-4.67-2.78-7.49L2488.73,574.09z M2299.5,334.84
			h161.93c4.53,0,8.2,3.67,8.2,8.2c0,4.53-3.67,8.2-8.2,8.2H2299.5c-4.53,0-8.21-3.67-8.21-8.2
			C2291.29,338.51,2294.97,334.84,2299.5,334.84z M2299.5,400.3h250.37c4.53,0,8.2,3.67,8.2,8.2c0,4.53-3.67,8.21-8.2,8.21H2299.5
			c-4.53,0-8.21-3.68-8.21-8.21C2291.29,403.97,2294.97,400.3,2299.5,400.3z M2461.43,611.37H2299.5c-4.53,0-8.21-3.67-8.21-8.2
			c0-4.53,3.68-8.2,8.21-8.2h161.93c4.53,0,8.2,3.67,8.2,8.2C2469.63,607.7,2465.96,611.37,2461.43,611.37z M2461.43,546.48H2299.5
			c-4.53,0-8.21-3.67-8.21-8.2c0-4.53,3.68-8.2,8.21-8.2h161.93c4.53,0,8.2,3.67,8.2,8.2
			C2469.63,542.81,2465.96,546.48,2461.43,546.48z M2299.5,481.6c-4.53,0-8.21-3.68-8.21-8.21c0-4.53,3.68-8.2,8.21-8.2h250.37
			c4.53,0,8.2,3.67,8.2,8.2c0,4.53-3.67,8.21-8.2,8.21H2299.5z"/>
	</g>
	<circle class="st1" cx="2478.99" cy="500" r="358.06"/>
</g>
<g>
	<circle cx="1521.01" cy="500" r="358.06"/>
	<g>
		<path class="st2" d="M1625.2,456.65l-86.34,118.71l58.36,42.44l27.98-38.47v104.42c0,18.61-15.08,33.69-33.69,33.69h-255.73
			c-18.61,0-33.69-15.08-33.69-33.69V316.24c0-18.61,15.08-33.69,33.69-33.69h222.81l66.61,66.61V456.65z"/>
		<polyline class="st2" points="1558.58,282.55 1558.58,349.12 1625.19,349.17 		"/>
		<g>
			<polygon class="st2" points="1722.18,445.98 1625.2,579.33 1597.21,617.81 1538.86,575.36 1625.2,456.65 1663.83,403.53 			"/>
			<path class="st2" d="M1739.94,409.87c0,7.36-2.25,14.79-6.9,21.19l-10.85,14.91l-58.36-42.44l10.85-14.91
				c11.72-16.11,34.29-19.68,50.4-7.96C1734.78,387.72,1739.94,398.72,1739.94,409.87z"/>
			<polyline class="st2" points="1538.86,575.36 1526.54,653.64 1597.21,617.81 			"/>
		</g>
		<line class="st2" x1="1341.52" y1="343.04" x2="1503.46" y2="343.04"/>
		<line class="st2" x1="1341.52" y1="408.5" x2="1591.89" y2="408.5"/>
		<line class="st2" x1="1341.52" y1="473.39" x2="1591.89" y2="473.39"/>
		<line class="st2" x1="1341.52" y1="538.28" x2="1503.46" y2="538.28"/>
		<line class="st2" x1="1341.52" y1="603.17" x2="1503.46" y2="603.17"/>
		<line class="st2" x1="1341.52" y1="668.06" x2="1591.89" y2="668.06"/>
	</g>
</g>
<g>
	<circle cx="3436.96" cy="500" r="358.06"/>
	<g>
		<polygon class="st3" points="3521.33,340.95 3482.73,340.92 3482.73,302.36 		"/>
		<path class="st3" d="M3647.68,409.87c0,5.91-1.84,11.57-5.34,16.37l-6.02,8.28l-45.09-32.79l6.02-8.28
			c9.05-12.43,26.51-15.19,38.95-6.15C3643.39,392.53,3647.68,400.97,3647.68,409.87z"/>
		<path class="st3" d="M3626.67,447.79l-115.32,158.56l-45.09-32.8l81.51-112.07c0.01,0,0.01,0,0.01,0l33.8-46.49l5.23,3.81
			L3626.67,447.79z"/>
		<polygon class="st3" points="3497.49,616.55 3453.08,639.08 3460.82,589.88 		"/>
		<path class="st3" d="M3446.7,574.09c0.01-0.09,0.04-0.17,0.05-0.25c0.03-0.15,0.06-0.31,0.1-0.46c0.03-0.13,0.07-0.25,0.1-0.37
			c0.04-0.13,0.08-0.27,0.13-0.4c0.05-0.14,0.11-0.28,0.17-0.43c0.04-0.09,0.08-0.19,0.13-0.29c0.08-0.17,0.16-0.34,0.25-0.5
			c0.04-0.07,0.08-0.14,0.12-0.2c0.11-0.19,0.23-0.37,0.35-0.54c0.03-0.04,0.05-0.08,0.07-0.11l0.08-0.11
			c0.02-0.02,0.03-0.04,0.05-0.06l84.64-116.39v-96.62l-58.42-0.04c-4.52,0-8.19-3.67-8.19-8.2v-58.36h-214.61
			c-14.05,0-25.48,11.43-25.48,25.48v367.52c0,14.05,11.43,25.48,25.48,25.48h255.73c14.06,0,25.49-11.43,25.49-25.48v-79.2
			l-13.15,18.07c-0.04,0.06-0.09,0.12-0.14,0.18c-0.1,0.13-0.21,0.27-0.32,0.39c-0.04,0.05-0.09,0.1-0.13,0.15
			c-0.05,0.06-0.11,0.11-0.16,0.17c-0.09,0.08-0.17,0.17-0.26,0.25c-0.08,0.08-0.16,0.15-0.24,0.22c-0.07,0.06-0.13,0.11-0.19,0.17
			c-0.06,0.04-0.11,0.08-0.17,0.13c-0.12,0.09-0.25,0.18-0.37,0.27c-0.07,0.04-0.13,0.09-0.2,0.14c-0.03,0.01-0.05,0.03-0.08,0.04
			c-0.17,0.11-0.35,0.21-0.52,0.3c-0.05,0.03-0.09,0.06-0.14,0.08h-0.01c-0.02,0.02-0.05,0.03-0.07,0.04l-0.08,0.04
			c-0.01,0.01-0.01,0.01-0.02,0.01l-68.33,34.65h59.48c4.53,0,8.2,3.67,8.2,8.2c0,4.53-3.67,8.2-8.2,8.2h-250.37
			c-4.53,0-8.21-3.67-8.21-8.2c0-4.53,3.68-8.2,8.21-8.2h179.69c-2.15-1.84-3.23-4.67-2.78-7.49L3446.7,574.09z M3257.47,334.84
			h161.93c4.53,0,8.2,3.67,8.2,8.2c0,4.53-3.67,8.2-8.2,8.2h-161.93c-4.53,0-8.21-3.67-8.21-8.2
			C3249.26,338.51,3252.94,334.84,3257.47,334.84z M3257.47,400.3h250.37c4.53,0,8.2,3.67,8.2,8.2c0,4.53-3.67,8.21-8.2,8.21
			h-250.37c-4.53,0-8.21-3.68-8.21-8.21C3249.26,403.97,3252.94,400.3,3257.47,400.3z M3419.4,611.37h-161.93
			c-4.53,0-8.21-3.67-8.21-8.2c0-4.53,3.68-8.2,8.21-8.2h161.93c4.53,0,8.2,3.67,8.2,8.2C3427.6,607.7,3423.93,611.37,3419.4,611.37
			z M3419.4,546.48h-161.93c-4.53,0-8.21-3.67-8.21-8.2c0-4.53,3.68-8.2,8.21-8.2h161.93c4.53,0,8.2,3.67,8.2,8.2
			C3427.6,542.81,3423.93,546.48,3419.4,546.48z M3257.47,481.6c-4.53,0-8.21-3.68-8.21-8.21c0-4.53,3.68-8.2,8.21-8.2h250.37
			c4.53,0,8.2,3.67,8.2,8.2c0,4.53-3.67,8.21-8.2,8.21H3257.47z"/>
	</g>
</g>
</svg>
